 <svg version="1.0" xmlns="http://www.w3.org/2000/svg"  width="102.000000pt" height="124.000000pt" viewBox="0 0 102.000000 124.000000"  preserveAspectRatio="xMidYMid meet">  <g transform="translate(0.000000,124.000000) scale(0.100000,-0.100000)" stroke="none"> <path d="M360 1164 c-201 -47 -279 -157 -267 -374 4 -76 11 -111 33 -161 52 -122 43 -234 -30 -384 -25 -50 -42 -92 -39 -95 10 -10 44 48 79 135 33 82 37 99 38 190 0 88 -2 104 -22 137 -34 54 -56 201 -42 278 15 83 32 120 79 168 54 55 83 69 201 92 86 17 114 18 195 10 233 -24 324 -104 340 -296 6 -72 5 -92 -9 -115 -20 -34 -15 -60 32 -154 38 -76 36 -88 -14 -116 -20 -11 -29 -24 -29 -42 -1 -14 -9 -35 -18 -45 -10 -11 -15 -26 -12 -34 4 -10 -1 -17 -14 -21 -17 -4 -21 -13 -21 -49 0 -23 -7 -51 -15 -62 -13 -17 -21 -18 -104 -8 -66 8 -106 19 -153 43 -118 59 -144 91 -166 204 -5 26 -16 44 -30 51 -12 6 -30 19 -41 28 -25 22 -62 110 -63 147 -1 35 -18 39 -18 5 0 -64 77 -196 115 -196 8 0 19 -27 29 -73 13 -58 23 -80 49 -104 46 -43 85 -67 140 -88 32 -12 44 -21 38 -29 -4 -6 -11 -24 -15 -41 -4 -16 -13 -37 -21 -45 -14 -17 -25 -90 -13 -90 4 0 8 11 8 24 0 13 9 34 19 48 11 13 22 41 26 61 l7 38 92 -6 c106 -7 119 1 129 69 3 21 14 47 24 58 10 11 17 28 15 38 -2 11 5 23 16 29 14 7 18 18 14 39 -3 24 1 31 26 41 16 7 35 24 43 37 12 23 10 31 -18 82 -17 31 -36 74 -43 95 -10 33 -10 41 5 57 15 17 16 30 7 125 -16 167 -66 235 -207 286 -80 29 -279 36 -375 13z"/> <path d="M289 773 c-39 -45 -30 -56 10 -12 l30 33 38 -27 c43 -31 56 -27 24 7 -37 39 -67 39 -102 -1z"/> <path d="M676 791 c5 -5 37 -11 72 -13 43 -3 71 -11 92 -26 30 -23 50 -28 50 -14 0 5 -22 21 -49 35 -38 21 -62 27 -112 27 -37 0 -59 -4 -53 -9z"/> <path d="M316 755 c-25 -19 -14 -30 14 -15 18 10 24 9 31 -1 12 -19 11 -25 -6 -39 -12 -10 -16 -9 -21 4 -3 9 -10 16 -15 16 -6 0 -5 -9 1 -20 13 -25 36 -26 49 -2 6 9 11 13 11 8 0 -5 -7 -17 -15 -26 -12 -14 -13 -21 -2 -43 6 -15 15 -27 20 -27 12 0 8 38 -5 44 -10 3 -8 9 5 19 22 19 22 24 -9 64 -28 37 -31 38 -58 18z"/> <path d="M290 705 c0 -5 10 -38 22 -72 17 -47 28 -63 42 -63 14 0 16 3 7 14 -6 7 -8 22 -4 32 6 16 4 17 -9 6 -14 -11 -17 -8 -22 21 -6 32 -35 83 -36 62z"/> <path d="M890 490 c0 -13 11 -13 30 0 12 8 11 10 -7 10 -13 0 -23 -4 -23 -10z"/> <path d="M345 470 c17 -73 34 -123 44 -133 21 -21 17 -1 -16 78 -19 44 -31 69 -28 55z"/> <path d="M793 373 c-7 -2 -13 -9 -13 -14 0 -13 20 -11 55 6 l30 13 -30 0 c-16 0 -36 -2 -42 -5z"/> <path d="M460 194 c0 -5 17 -50 37 -101 35 -86 53 -114 53 -78 0 22 -39 115 -55 132 -8 8 -15 21 -15 28 0 8 -4 17 -10 20 -5 3 -10 3 -10 -1z"/> </g> </svg> 